<svg width="64" height="41" viewBox="0 0 64 41" fill="none" xmlns="http://www.w3.org/2000/svg">
<g clip-path="url(#clip0_3_32)">
<path d="M64.0001 20.8734C63.1861 21.9786 62.4502 23.1149 61.5579 24.1578C57.0491 29.4501 51.914 34.0109 45.7457 37.3108C41.19 39.7546 36.3367 41.1866 31.0921 40.9687C26.5364 40.7819 22.3093 39.3966 18.3328 37.2485C11.961 33.7929 6.63811 29.0765 1.97275 23.5819C1.45611 22.9748 0.955134 22.3677 0.485466 21.7451C-0.156412 20.889 -0.172068 20.0796 0.485466 19.239C5.63615 12.6392 11.7731 7.1445 19.2878 3.26865C23.6401 1.02719 28.2741 -0.2025 33.2213 0.0309849C37.9493 0.248904 42.3328 1.72764 46.4033 4.04693C53.1665 7.90722 58.7712 13.075 63.4835 19.2079C63.687 19.4881 63.8279 19.815 64.0001 20.1263C64.0001 20.3753 64.0001 20.6244 64.0001 20.8734ZM4.27412 20.422C4.35239 20.5621 4.36805 20.6244 4.39936 20.6711C8.87686 26.0412 13.9649 30.6954 20.1958 34.0264C23.2017 35.6297 26.3798 36.766 29.8084 37.1551C34.9277 37.7466 39.6244 36.3613 44.0706 33.9953C48.0471 31.8939 51.554 29.1232 54.7477 25.979C56.5011 24.2512 58.1293 22.3989 59.7888 20.6244C59.6949 20.4376 59.6636 20.3909 59.6322 20.3442C55.687 15.5188 51.2095 11.285 45.8553 8.03174C42.3485 5.89925 38.5911 4.34268 34.4737 3.86014C29.323 3.25308 24.6107 4.65399 20.1332 7.01998C15.5305 9.44822 11.554 12.717 7.95318 16.4216C6.66942 17.7136 5.4796 19.0989 4.27412 20.422Z" fill="#3843D0"/>
<path d="M45.2446 20.5156C45.229 27.6913 39.3268 33.5596 32.1096 33.544C24.7985 33.5285 18.7397 27.598 18.7554 20.4844C18.7711 13.3554 24.8611 7.42483 32.1566 7.45596C39.3738 7.47153 45.2603 13.3554 45.2446 20.5156ZM32.1409 29.8394C37.2916 29.8238 41.503 25.6367 41.5186 20.5C41.5186 15.3633 37.3386 11.1917 32.1409 11.1762C26.8963 11.1606 22.4814 15.4256 22.4971 20.5C22.4971 25.5588 26.9276 29.8394 32.1409 29.8394Z" fill="#3843D0"/>
<path d="M37.7456 20.5C37.7456 23.5353 35.2094 26.0725 32.1409 26.0881C28.9784 26.1037 26.2074 23.4575 26.2544 20.4689C26.2857 17.4647 29.0254 14.8964 32.1565 14.9119C35.225 14.9431 37.7456 17.4647 37.7456 20.5ZM32.1096 22.3679C33.1428 22.3679 33.9726 21.5585 34.0039 20.5311C34.0195 19.4882 33.1585 18.6321 32.1096 18.6321C31.045 18.6477 30.0274 19.5349 30.0117 20.4689C29.9961 21.4495 31.0293 22.3679 32.1096 22.3679Z" fill="#3843D0"/>
</g>
<defs>
<clipPath id="clip0_3_32">
<rect width="64" height="41" fill="white"/>
</clipPath>
</defs>
</svg>
