<svg width="28" height="14" viewBox="0 0 28 14" fill="none" xmlns="http://www.w3.org/2000/svg">
<circle cx="6.48145" cy="3.5" r="3" stroke="#F8F9FA"/>
<path fill-rule="evenodd" clip-rule="evenodd" d="M11.9586 14C11.706 11.1967 9.35008 9 6.48106 9C3.61203 9 1.25609 11.1967 1.00348 14H0C0.255312 10.6438 3.05944 8 6.48106 8C9.90267 8 12.7068 10.6438 12.9621 14H11.9586Z" fill="#F8F9FA"/>
<circle cx="21.4629" cy="3.5" r="3" stroke="#F8F9FA"/>
<path fill-rule="evenodd" clip-rule="evenodd" d="M26.9401 14C26.6875 11.1967 24.3315 9 21.4625 9C18.5935 9 16.2375 11.1967 15.9849 14H14.9814C15.2368 10.6438 18.0409 8 21.4625 8C24.8841 8 27.6882 10.6438 27.9436 14H26.9401Z" fill="#F8F9FA"/>
<circle cx="14.001" cy="4.5" r="2" stroke="#F8F9FA"/>
<path fill-rule="evenodd" clip-rule="evenodd" d="M16.7598 10.0001C16.0916 9.21346 15.0953 8.71436 13.9823 8.71436C12.8693 8.71436 11.8729 9.21346 11.2047 10.0001H9.98145C10.7892 8.63203 12.2786 7.71436 13.9823 7.71436C15.686 7.71436 17.1754 8.63203 17.9831 10.0001H16.7598Z" fill="#F8F9FA"/>
</svg>
