<svg width="60" height="54" viewBox="0 0 60 54" fill="none" xmlns="http://www.w3.org/2000/svg">
<g clip-path="url(#clip0_3_39)">
<path d="M60 25.9325C60 26.6338 60 27.3351 60 28.0364C59.9687 28.0987 59.9217 28.1766 59.9061 28.239C59.64 30.187 58.779 31.8545 57.5267 33.3507C55.7109 35.5325 53.4099 37.0909 50.9053 38.3377C50.4044 38.587 50.2635 38.852 50.3105 39.3974C50.4827 42.1714 50.2165 44.8987 49.2304 47.5325C47.5085 52.1299 43.3446 54.561 38.4764 53.8442C35.5961 53.4078 33.029 52.239 30.6183 50.6805C30.1644 50.3844 29.867 50.3533 29.3973 50.6649C27.1589 52.1299 24.7796 53.2364 22.1341 53.7662C17.1093 54.7481 12.8046 52.4727 10.8949 47.7662C9.78347 45.039 9.51736 42.2026 9.7052 39.3039C9.73651 38.8364 9.62693 38.587 9.17298 38.3688C6.93452 37.2779 4.88391 35.8909 3.14637 34.0987C-0.876591 29.9844 -1.04878 24.6545 2.72372 20.3221C4.50822 18.2805 6.71537 16.8 9.12602 15.6156C9.62693 15.3662 9.73651 15.1013 9.7052 14.6026C9.53301 11.9377 9.78347 9.31948 10.6757 6.79481C12.3976 1.82338 16.5771 -0.670126 21.7897 0.155848C24.5761 0.592212 27.065 1.77663 29.3973 3.3039C29.867 3.61559 30.18 3.58442 30.6183 3.28832C32.7002 1.91689 34.923 0.857147 37.3806 0.311693C43.1412 -0.966229 47.7276 1.66754 49.5121 7.24676C50.2792 9.66234 50.4827 12.1558 50.2948 14.6805C50.2635 15.1325 50.3887 15.3351 50.7957 15.5688C52.2985 16.4571 53.8325 17.3299 55.2257 18.3896C57.3546 20.0104 58.9982 22.052 59.7026 24.7013C59.8122 25.1221 59.8904 25.5273 60 25.9325ZM30.0861 14.6494C27.9416 14.8052 25.7501 14.9455 23.5742 15.1325C23.3238 15.1481 23.0264 15.3507 22.8698 15.5533C20.2713 18.9818 18.1425 22.6753 16.4519 26.6182C16.358 26.8364 16.358 27.1481 16.4519 27.3662C18.1425 31.3091 20.2713 35.0026 22.8698 38.4312C23.0264 38.6494 23.3551 38.8208 23.6368 38.852C27.8633 39.3507 32.0898 39.3662 36.3162 38.852C36.598 38.8208 36.9424 38.6338 37.1145 38.4C39.6974 34.987 41.8263 31.3091 43.5012 27.3818C43.5951 27.1481 43.5951 26.8052 43.5012 26.587C41.8263 22.6597 39.6974 18.9818 37.1145 15.5688C36.958 15.3507 36.6293 15.1481 36.3632 15.1325C34.2969 14.9455 32.215 14.8052 30.0861 14.6494ZM49.8565 34.9558C51.8758 33.8649 53.7073 32.587 55.0848 30.7636C56.8067 28.4727 56.9476 26.0883 55.4605 23.7662C54.083 21.6156 52.0637 20.2286 49.8565 19.013C49.8096 19.1377 49.7626 19.2312 49.7313 19.3091C49.0269 21.7714 48.3068 24.2182 47.6181 26.6805C47.5555 26.8987 47.6024 27.1792 47.665 27.3974C48.0094 28.4571 48.4007 29.4857 48.7138 30.5455C49.1208 31.9948 49.4652 33.4442 49.8565 34.9558ZM10.1592 19.013C7.90504 20.2442 5.88574 21.6468 4.50822 23.8286C3.67859 25.1377 3.3029 26.5558 3.64728 28.1143C3.88208 29.174 4.383 30.1091 5.0561 30.9507C6.43361 32.6805 8.20246 33.9117 10.1435 34.9558C10.1905 34.8468 10.2218 34.7844 10.2374 34.7377C10.9575 32.2442 11.6932 29.7507 12.3976 27.2571C12.4602 27.0545 12.4133 26.8052 12.3506 26.587C11.8967 25.1377 11.3958 23.7195 10.9575 22.2701C10.6444 21.2104 10.4253 20.1351 10.1592 19.013ZM33.0133 5.89091C33.0759 5.98442 33.0759 6.03117 33.1072 6.06234C34.923 7.93247 36.7232 9.8026 38.5547 11.6727C38.6955 11.813 38.899 11.9065 39.0869 11.9533C41.5288 12.561 43.9551 13.1533 46.3971 13.7455C46.5223 13.7766 46.6475 13.7922 46.8354 13.8234C46.8354 11.2675 46.6319 8.8052 45.364 6.56104C44.1743 4.45715 42.3428 3.44416 39.9165 3.52208C37.3963 3.6 35.1892 4.64416 33.0133 5.89091ZM13.149 40.1299C13.149 42.7948 13.3681 45.3351 14.73 47.626C15.6535 49.1844 17.0154 50.1507 18.8312 50.4C20.0678 50.5714 21.2888 50.4312 22.4785 50.0883C24.0751 49.6364 25.5622 48.9507 26.8458 48.1403C25.0144 46.161 23.1985 44.213 21.3827 42.2805C21.2575 42.1558 21.0697 42.0779 20.8818 42.0312C19.4573 41.7195 18.0172 41.4545 16.5928 41.1117C15.4814 40.8312 14.37 40.4727 13.149 40.1299ZM33.1072 48.0935C34.5943 49.1688 37.3806 50.2442 39.2121 50.4312C42.3428 50.7429 44.6439 49.4649 45.7866 46.5351C46.2875 45.2571 46.491 43.839 46.7415 42.4831C46.8823 41.7351 46.8354 40.9558 46.8667 40.0987C46.5067 40.2078 46.2719 40.2857 46.0371 40.3481C44.1273 40.8312 42.2489 41.3922 40.3235 41.7662C39.2591 41.9688 38.4764 42.3584 37.7563 43.2C36.2849 44.8987 34.6726 46.4571 33.1072 48.0935ZM13.149 13.8546C13.3525 13.8078 13.4464 13.7922 13.5403 13.7766C15.9353 13.1844 18.3303 12.6078 20.7253 11.9844C21.0384 11.9065 21.3514 11.7039 21.5862 11.4857C23.3081 9.74026 24.9987 7.97923 26.7049 6.21819C26.7832 6.12468 26.8771 6.03117 26.971 5.92208C25.0457 4.75325 23.0733 3.84935 20.8662 3.58442C18.4399 3.28832 16.358 3.92728 14.9491 6.04676C13.3838 8.38442 13.1646 11.0494 13.149 13.8546ZM14.5421 22.239C15.7631 20.1195 16.9058 18.1558 18.1268 16.0364C16.5301 16.5195 15.0431 16.987 13.462 17.4701C13.8221 19.0753 14.1665 20.587 14.5421 22.239ZM41.8732 16.0364C43.1098 18.1558 44.2526 20.1351 45.4735 22.2234C45.8492 20.587 46.1936 19.0597 46.5536 17.4545C44.957 16.9714 43.4699 16.5195 41.8732 16.0364ZM13.4464 36.5143C15.0431 36.9974 16.5301 37.4494 18.1111 37.9325C16.8745 35.813 15.7318 33.8338 14.5265 31.7455C14.1665 33.3662 13.8221 34.8935 13.4464 36.5143ZM45.4579 31.7455C44.2369 33.8494 43.0942 35.8286 41.8576 37.9481C43.4855 37.4494 44.9726 36.9974 46.538 36.5143C46.1779 34.8935 45.8336 33.3662 45.4579 31.7455ZM29.9922 7.96364C28.7712 9.1013 27.6285 10.161 26.4075 11.2831C28.8651 11.2831 31.1505 11.2831 33.5925 11.2831C32.3559 10.1455 31.2132 9.08572 29.9922 7.96364ZM26.4075 42.6857C27.6598 43.839 28.8025 44.8987 30.0078 46.0052C31.2132 44.8831 32.3715 43.8234 33.5925 42.6857C31.1505 42.6857 28.8651 42.6857 26.4075 42.6857Z" fill="#3843D0"/>
<path d="M30.0078 21.3039C31.0097 20.4779 32.1211 19.9948 33.389 19.9948C35.5805 19.9948 37.2398 20.961 38.2103 22.9247C39.1651 24.8571 39.0869 26.8675 37.6154 28.4416C35.1578 31.0597 32.4811 33.4909 29.8513 36.0312C29.9452 36.0779 29.8826 36.0623 29.8513 36.0312C27.4563 33.6467 25.03 31.3091 22.6976 28.8935C19.8956 25.9948 21.2418 21.2416 25.1239 20.1974C26.7832 19.7299 28.2703 20.0571 30.0078 21.3039ZM30.0235 31.2467C30.3679 30.8883 30.6496 30.5766 30.947 30.2649C32.1993 29.0182 33.4673 27.7714 34.7039 26.5091C35.4396 25.7455 35.4396 24.7013 34.7509 24C34.0621 23.2987 32.9977 23.3143 32.2306 24.0312C31.9958 24.2493 31.7923 24.4675 31.5732 24.6857C31.0566 25.2 30.54 25.7143 29.9765 26.2753C29.1938 25.4805 28.4894 24.7169 27.7381 24C27.0023 23.2987 25.9536 23.2987 25.2648 23.9688C24.5604 24.6545 24.5447 25.7299 25.2805 26.4779C26.8145 28.0675 28.3799 29.6104 30.0235 31.2467Z" fill="#3843D0"/>
</g>
<defs>
<clipPath id="clip0_3_39">
<rect width="60" height="54" fill="white"/>
</clipPath>
</defs>
</svg>
