<svg width="51" height="52" viewBox="0 0 51 52" fill="none" xmlns="http://www.w3.org/2000/svg">
<path d="M48.9331 10.1024C49.3526 9.86747 49.8033 9.63253 50.2073 9.3506C50.6269 9.05301 50.9066 8.5988 50.9843 8.12892C51.0464 7.6747 50.9066 7.23614 50.5958 6.86024C50.5492 6.79759 50.5026 6.73494 50.4404 6.67229C50.3472 6.54699 50.2539 6.42169 50.1296 6.29639L49.1506 5.30964C47.6278 3.75904 46.0583 2.16145 44.4888 0.595181C44.1314 0.23494 43.6653 0.0313253 43.1835 0.0313253C42.562 0.0313253 41.9715 0.360241 41.6296 0.924096C41.3654 1.34699 41.1324 1.78554 40.9148 2.20843L40.8526 2.33373C40.5419 2.92892 40.2466 3.53976 39.9358 4.11928L39.7649 4.44819C39.6872 4.4012 39.625 4.35422 39.5473 4.32289C39.221 4.11928 38.8947 3.93133 38.5684 3.72771C34.3417 1.25301 29.9907 0 25.6086 0C23.5729 0 21.4907 0.266265 19.4239 0.814458C13.0218 2.49036 7.90932 6.21807 4.22651 11.9193C0.357221 17.9024 -0.854845 24.4181 0.590311 31.2783C2.14424 38.5928 6.23108 44.3566 12.742 48.3663C16.6269 50.7626 20.8536 51.9843 25.3133 51.9843C26.4477 51.9843 27.6132 51.906 28.7631 51.7494C34.0931 51.0289 38.8015 48.7422 42.764 44.9205C47.3481 40.5036 50.0519 35.1313 50.7978 28.9289C51.3883 23.9169 50.5492 19.0301 48.2804 14.4253C47.8764 13.6108 47.4102 12.8277 46.9596 12.0602C46.8197 11.8253 46.6799 11.5904 46.54 11.3554C47.3015 10.9795 48.0318 10.588 48.7155 10.212L48.9331 10.1024ZM24.3344 47.9904C17.7768 47.9904 9.27678 43.5422 5.71828 35.0217C4.25759 31.5133 3.66709 27.8325 3.99342 24.1048C4.49068 18.388 6.75942 13.5639 10.7219 9.77349C13.7521 6.89157 17.3728 5.04337 21.5062 4.30723C22.8892 4.05663 24.2567 3.93133 25.5931 3.93133C28.0793 3.93133 30.519 4.36988 32.8499 5.23133C34.5592 5.85783 36.2375 6.7506 37.9623 7.95663C37.4962 8.88072 37.03 9.82048 36.5793 10.7602C36.2996 11.3241 36.0199 11.9036 35.7247 12.4675C35.5848 12.3735 35.445 12.2952 35.3207 12.2012C33.2695 10.7133 31.0473 9.71084 28.7009 9.24096C27.9395 9.08434 27.1625 9.06868 26.4166 9.03735C26.1525 9.02169 25.8883 9.02169 25.6241 9.00602C25.391 8.99036 25.158 8.99036 24.9249 8.99036C18.6781 8.99036 12.3069 13.5012 9.77404 19.7036C8.76398 22.1783 8.40658 24.8096 8.65521 27.7386C8.99707 31.6542 10.7219 35.1783 13.7987 38.2169C16.1607 40.5506 18.9578 42.0699 22.1433 42.7277C23.3243 42.9783 24.4898 43.088 25.6397 43.088C28.4678 43.088 31.2027 42.3361 33.7356 40.8325C38.2887 38.1542 41.1168 34.2542 42.1269 29.2265C43.0437 24.653 42.1113 20.2988 39.3453 16.2892L39.2521 16.1639C39.0656 15.8819 38.8636 15.6 38.6771 15.3181C39.8737 14.7072 41.0547 14.0964 42.2512 13.4699L43.0281 13.0783C44.1314 14.6759 44.8618 15.9916 45.359 17.3229C48.3426 25.1542 47.519 32.4843 42.9349 39.1253C39.6561 43.8711 34.9477 46.8 28.9495 47.8024C28.0172 47.959 27.0848 47.959 26.0903 47.959C25.6707 47.959 25.2356 47.959 24.8005 47.9747C24.6452 47.9904 24.4898 47.9904 24.3344 47.9904ZM21.2576 25.8434C21.1954 25.0759 21.413 24.3241 21.9413 23.4783C22.5318 22.5229 23.4486 21.959 24.6452 21.7867C24.8161 21.7554 25.0181 21.7554 25.2356 21.7554C25.562 21.7554 25.9038 21.7867 26.2612 21.8181C26.3856 21.8337 26.4943 21.8337 26.6186 21.8494C26.2612 22.2096 25.9194 22.5386 25.5775 22.8988C25.0026 23.494 24.5208 23.9952 24.0547 24.512C23.5263 25.1072 23.4486 25.8277 23.806 26.5639C24.1324 27.2217 24.7229 27.5819 25.4221 27.5819C25.4998 27.5819 25.562 27.5819 25.6397 27.5663C26.0282 27.5193 26.4477 27.3313 26.7585 27.0651C27.2402 26.6422 27.7219 26.1723 28.1726 25.7337C28.3901 25.5301 28.6077 25.3108 28.8252 25.1072L28.934 25.0133C29.1516 24.8096 29.3536 24.6217 29.5556 24.4337C29.9751 25.9843 29.7887 27.394 28.9962 28.647C28.4834 29.4771 27.6442 29.9627 26.3856 30.1976C26.0592 30.2602 25.7329 30.2916 25.4066 30.2916C24.4431 30.2916 23.5729 30.0096 22.8115 29.4458C21.8947 28.7566 21.3819 27.8012 21.2887 26.5952C21.2887 26.4855 21.2887 26.3759 21.2887 26.2663C21.2731 26.141 21.2731 26 21.2576 25.8434ZM32.7567 15.6313C32.4459 15.9446 32.1196 16.2735 31.8088 16.5867C31.0473 17.3542 30.2704 18.1374 29.509 18.9205C28.4057 18.3253 27.5044 17.9964 26.572 17.8711C26.2146 17.8241 25.8417 17.7928 25.4998 17.7928C23.7905 17.7928 22.1899 18.3566 20.7448 19.4843C18.7713 21.0193 17.6525 22.9458 17.4194 25.2325C17.1241 28.0518 18.274 30.5265 20.8536 32.5626C22.2366 33.659 23.7594 34.2072 25.3755 34.2072C26.1369 34.2072 26.9294 34.0819 27.7064 33.8313C30.8143 32.8289 32.8033 30.6361 33.487 27.5193C33.9221 25.4831 33.5803 23.5253 32.477 21.8337C32.4303 21.7711 32.3682 21.6614 32.3216 21.5988C32.3682 21.5361 32.4614 21.4578 32.5236 21.3795L32.5391 21.3639C33.689 20.2048 34.8389 19.0458 35.9888 17.9024C36.6415 18.7325 37.0921 19.641 37.4806 20.5024C38.3664 22.4133 38.6927 24.6217 38.5218 27.206C38.2731 30.6988 36.828 33.659 34.2174 35.9771C32.1662 37.794 29.6799 38.8434 26.8207 39.094C26.3234 39.141 25.8417 39.1566 25.3755 39.1566C23.4642 39.1566 21.7548 38.812 20.1698 38.0916C15.9431 36.1964 13.4102 32.9072 12.6177 28.3181C12.0894 25.2325 12.5245 22.3349 13.9386 19.688C15.8499 16.0855 18.8335 13.8614 22.8271 13.0783C23.7594 12.8904 24.6918 12.812 25.5931 12.812C27.9861 12.812 30.3015 13.4542 32.477 14.7072C32.6945 14.8325 32.8965 14.9735 33.083 15.1145C33.1141 15.1458 33.1607 15.1614 33.1918 15.1928C33.0364 15.3494 32.8965 15.4904 32.7567 15.6313ZM41.6296 9.41325L43.6653 5.27831L45.7786 7.36145L41.6296 9.41325Z" fill="#3843D0"/>
</svg>
